<?xml version="1.0" encoding="UTF-8"?> <!-- Generator: Adobe Illustrator 19.2.1, SVG Export Plug-In . SVG Version: 6.00 Build 0) --> <svg xmlns="http://www.w3.org/2000/svg" xmlns:xlink="http://www.w3.org/1999/xlink" version="1.1" id="layer" x="0px" y="0px" viewBox="0 0 652 652" style="enable-background:new 0 0 652 652;" xml:space="preserve"> <style type="text/css"> .st0{clip-path:url(#SVGID_2_);fill:url(#SVGID_3_);} .st1{clip-path:url(#SVGID_5_);fill:url(#SVGID_6_);} .st2{fill:#003B6B;} </style> <g> <defs> <path id="SVGID_1_" d="M78.1,267.7l-38.9,39c-5.3,5.2-8,12.1-8.1,19v0.8c0.1,6.9,2.8,13.8,8.1,19.1l39,38.9 c10.7,10.8,28.1,10.8,38.9,0l38.9-39c10.8-10.7,10.8-28.1,0-38.9l-38.9-38.9c-5.4-5.4-12.4-8.1-19.5-8.1 C90.5,259.6,83.5,262.3,78.1,267.7"></path> </defs> <clipPath id="SVGID_2_"> <use xlink:href="#SVGID_1_" style="overflow:visible;"></use> </clipPath> <linearGradient id="SVGID_3_" gradientUnits="userSpaceOnUse" x1="21.6017" y1="702.6442" x2="27.8128" y2="702.6442" gradientTransform="matrix(12.4943 12.4943 12.4943 -12.4943 -8990.1436 8796.4463)"> <stop offset="0" style="stop-color:#BDE7F4"></stop> <stop offset="1" style="stop-color:#00C1E0"></stop> </linearGradient> <polygon class="st0" points="98.9,191.7 234.6,327.4 98.9,463.1 -36.7,327.4 "></polygon> </g> <g> <defs> <path id="SVGID_4_" d="M87.8,296.9l-19.5,19.5c-5.4,5.4-5.4,14.1,0,19.5l19.5,19.5c5.4,5.4,14.1,5.4,19.5,0l19.5-19.5 c5.4-5.4,5.4-14.1,0-19.5l-19.5-19.5c-2.7-2.7-6.2-4-9.7-4C94.1,292.8,90.5,294.2,87.8,296.9"></path> </defs> <clipPath id="SVGID_5_"> <use xlink:href="#SVGID_4_" style="overflow:visible;"></use> </clipPath> <linearGradient id="SVGID_6_" gradientUnits="userSpaceOnUse" x1="27.1762" y1="695.3959" x2="33.3874" y2="695.3959" gradientTransform="matrix(3.3091 10.9303 10.9303 -3.3091 -7604.2964 2294.1831)"> <stop offset="0" style="stop-color:#00315B"></stop> <stop offset="1" style="stop-color:#045087"></stop> </linearGradient> <polygon class="st1" points="126.3,273.7 150.9,354.9 68.8,379.8 44.2,298.5 "></polygon> </g> <g> <path class="st2" d="M265.8,332.4c2.8,3.4,4,7.6,4,12.6c0,8-2.5,14-7.5,18c-4.9,4-13.3,5.9-25,5.9h-33v-86.7h33 c10.6,0,18,2,22.5,5.9c4.5,3.9,6.7,9.6,6.7,17.4c0,4.7-0.9,8.6-2.9,11.8c-2,3.2-5,5.7-9.2,7.6C259.2,326.4,263,328.9,265.8,332.4 M220.1,319h17.2c8.6,0,13-4.1,13-12.3c0-4.2-1-7.2-3-9.1c-2-1.8-5.3-2.8-10-2.8h-17.2V319z M249.6,334.7c-2.8-2-6.9-2.9-12.3-2.9 h-17.2V356h17.2c6,0,10.2-0.9,12.7-2.9c2.5-2,3.7-5,3.7-9.3C253.7,339.6,252.4,336.6,249.6,334.7 M291.8,366.5 c-2.9-2.6-4.4-6.7-4.4-12.2v-72.6h15.3v67.6c0,2.8,0.5,4.7,1.4,5.7c0.9,1,2.5,1.6,4.9,1.6s4.5-0.2,6.3-0.7v13.3 c-3.6,0.8-6.9,1.3-9.8,1.3C299.3,370.4,294.7,369.1,291.8,366.5 M340.1,366.3c-4.9-3-8.6-7-11.1-12.2c-2.5-5.2-3.7-10.9-3.7-17.3 c0-6.3,1.3-12,3.7-17.2c2.5-5.2,6.2-9.2,11.1-12.2c4.9-3,10.9-4.5,18-4.5c7,0,13,1.5,17.8,4.5c4.8,3,8.6,7,11,12.2 c2.4,5.2,3.7,10.8,3.7,17.2c0,6.4-1.3,12.2-3.7,17.3c-2.4,5.2-6.2,9.2-11,12.2c-4.9,3-10.9,4.5-17.8,4.5 C351,370.8,345.1,369.3,340.1,366.3 M370.5,351.9c2.9-3.7,4.4-8.7,4.4-15c0-6.3-1.5-11.4-4.4-15c-2.9-3.7-7-5.5-12.4-5.5 c-5.5,0-9.6,1.8-12.6,5.5c-2.9,3.7-4.4,8.6-4.4,15c0,6.4,1.5,11.4,4.4,15c2.9,3.7,7.1,5.5,12.6,5.5 C363.5,357.4,367.7,355.6,370.5,351.9 M411.3,361.8c-5.4-6-8.1-14.3-8.1-25c0-10.6,2.8-18.7,8.1-24.7c5.4-6,13.3-9,23.5-9 c3.7,0,6.8,0.2,9.4,0.7c2.6,0.5,5.4,1.3,8.1,2.4v14.3c-2.8-1.4-5.5-2.3-7.9-2.9c-2.5-0.6-5.2-0.8-8.1-0.8 c-11.6,0.1-17.3,6.7-17.3,19.7c0,13.5,5.6,20.3,17,20.3c5.5,0,11-1.6,16.8-4.9l4.5,12.9c-6.9,4-14.2,6-22.4,6 C424.6,370.7,416.7,367.7,411.3,361.8 M492.4,343.5l-6.1,6.3V369H471v-87.2h15.3v48.9l23.1-24.2h18.5L502.6,333l28.2,35.9h-18.5 L492.4,343.5z M561,296v24.2h33.3v13.9H561v34.8h-15.8v-86.7H600V296H561z M615.8,281.3h15.3v16.1h-15.3V281.3z M615.8,309.7h15.3 v59.2h-15.3V309.7z"></path> </g> </svg> 