<svg id="Ebene_1" data-name="Ebene 1" xmlns="http://www.w3.org/2000/svg" width="107.43mm" height="29.3mm" viewBox="0 0 304.54 83.05"><defs><style>.cls-1{fill:#ff671d;}.cls-2{fill:#fff;}</style></defs><path class="cls-1" d="M96.26,6.58s-19.86,5.47-27.34,7.6S56.77,32.34,56.73,32.49l-22,6.17s-8,1.59-8,9.86c0,7.85,8,4.89,8,4.89s3.83-1,11.31-3.14S56.7,32.63,56.73,32.49l39.53-11s8-1.72,8-10C104.3,3.63,96.26,6.58,96.26,6.58Z" transform="translate(-9.16 -6.03)"/><path class="cls-1" d="M17.21,88.54s21.34-6,28.82-8.14,10.66-17.62,10.7-17.77l22-6.17s8-1.59,8-9.86c0-7.85-8-5.06-8-5.06s-3.83,1-11.31,3.15S56.76,62.49,56.73,62.63l-39.52,11s-8,1.72-8,10C9.16,91.49,17.21,88.54,17.21,88.54Z" transform="translate(-9.16 -6.03)"/><path class="cls-2" d="M120.34,33.45h16.9v2.39H123v10h13.27v2.39H123V61.67h-2.63Z" transform="translate(-9.16 -6.03)"/><path class="cls-2" d="M147.32,33.45h7.42c.37,0,.87,0,1.51,0a16.47,16.47,0,0,1,2.07.24,11.84,11.84,0,0,1,2.28.64,6.32,6.32,0,0,1,2.07,1.27,6.51,6.51,0,0,1,1.51,2.11,7.31,7.31,0,0,1,.6,3.11,7,7,0,0,1-.7,3.35,6.52,6.52,0,0,1-1.75,2.14A7.29,7.29,0,0,1,160,47.56a15,15,0,0,1-2.43.56l8.21,13.55h-3l-7.93-13.39H150V61.67h-2.63ZM150,45.89h5.59a9.26,9.26,0,0,0,3.36-.52,5.58,5.58,0,0,0,2-1.28,4.07,4.07,0,0,0,1-1.63,5.84,5.84,0,0,0,.26-1.6,5.77,5.77,0,0,0-.26-1.59,4.17,4.17,0,0,0-1-1.64,5.7,5.7,0,0,0-2-1.27,9.26,9.26,0,0,0-3.36-.52H150Z" transform="translate(-9.16 -6.03)"/><path class="cls-2" d="M184.43,33.45h2.71L199,61.67h-3L193,54.18H178.05l-3.18,7.49h-2.75Zm1.24,2.87-6.58,15.47h13Z" transform="translate(-9.16 -6.03)"/><path class="cls-2" d="M231.15,57.25a11.93,11.93,0,0,1-4.7,3.94,14,14,0,0,1-5.78,1.2,15.52,15.52,0,0,1-5.92-1.1,13.27,13.27,0,0,1-4.61-3.07,14.15,14.15,0,0,1-3-4.7,17.08,17.08,0,0,1,0-11.9,14.27,14.27,0,0,1,3-4.68,13.45,13.45,0,0,1,4.61-3.09,15.16,15.16,0,0,1,5.92-1.12,14,14,0,0,1,5.36,1,10.62,10.62,0,0,1,4.36,3.41L228.24,39A7.8,7.8,0,0,0,224.87,36a10.24,10.24,0,0,0-4.2-.92,12.38,12.38,0,0,0-5,1,11.13,11.13,0,0,0-3.76,2.63,11.46,11.46,0,0,0-2.39,3.95,14.71,14.71,0,0,0,0,9.8,11.46,11.46,0,0,0,2.39,3.95A11,11,0,0,0,215.7,59a12.38,12.38,0,0,0,5,1,10.4,10.4,0,0,0,2.23-.26,9.91,9.91,0,0,0,2.25-.8,10.94,10.94,0,0,0,2.09-1.35,8.85,8.85,0,0,0,1.76-2Z" transform="translate(-9.16 -6.03)"/><path class="cls-2" d="M247.06,35.84h-9.65V33.45h21.92v2.39h-9.64V61.67h-2.63Z" transform="translate(-9.16 -6.03)"/><path class="cls-2" d="M274.44,33.45h2.71L289,61.67h-2.95L283,54.18H268.06l-3.19,7.49h-2.75Zm1.23,2.87L269.1,51.79h12.95Z" transform="translate(-9.16 -6.03)"/><path class="cls-2" d="M297.92,33.45h2.63V59.28H313.7v2.39H297.92Z" transform="translate(-9.16 -6.03)"/></svg>