<?xml version="1.0" encoding="utf-8"?>
<!-- Generator: Adobe Illustrator 21.1.0, SVG Export Plug-In . SVG Version: 6.00 Build 0)  -->
<svg version="1.1" id="Layer_1" xmlns="http://www.w3.org/2000/svg" xmlns:xlink="http://www.w3.org/1999/xlink" x="0px" y="0px"
	 viewBox="0 0 792 792" style="enable-background:new 0 0 792 792;" xml:space="preserve">
<style type="text/css">
	.st0{fill:#E98800;}
</style>
<g id="Layer_1_1_">
	<path class="st0" d="M602.6,632.2v-159c38-5.7,67.1-38.4,67.1-77.9c0-43.4-35.2-78.6-78.6-78.6c-39.5,0-72.1,29.1-77.9,67.1H276.7
		c-5-34.1-32.3-61.4-66.8-66V159.5c38.4-5.4,67.8-38,67.8-77.9c0-43.4-35.2-78.6-78.6-78.6s-78.6,35.2-78.6,78.6
		c0,39.1,28.7,71.8,66,77.5v158.6c-37.7,5.7-66.4,38.4-66.4,77.9s28.7,71.8,66.4,77.9v159c-37.7,5.7-66.8,38.4-66.8,77.9
		c0,43.4,35.2,78.6,78.6,78.6s78.6-35.2,78.6-78.6c0-39.5-29.1-72.1-67.1-77.9v-159c34.5-5,61.4-31.9,66.8-66h236.5
		c5,34.1,31.9,61,66,66v158.6c-38,5.7-67.1,38.4-67.1,77.9c0,43.4,35.2,78.6,78.6,78.6c43.4,0,78.6-35.2,78.6-78.6
		C669.4,670.6,640.3,637.9,602.6,632.2z"/>
</g>
</svg>
