<?xml version="1.0" encoding="UTF-8" standalone="no"?>
<!-- Generator: Adobe Illustrator 22.0.1, SVG Export Plug-In . SVG Version: 6.00 Build 0)  -->

<svg
   xmlns:dc="http://purl.org/dc/elements/1.1/"
   xmlns:cc="http://creativecommons.org/ns#"
   xmlns:rdf="http://www.w3.org/1999/02/22-rdf-syntax-ns#"
   xmlns:svg="http://www.w3.org/2000/svg"
   xmlns="http://www.w3.org/2000/svg"
   xmlns:sodipodi="http://sodipodi.sourceforge.net/DTD/sodipodi-0.dtd"
   xmlns:inkscape="http://www.inkscape.org/namespaces/inkscape"
   version="1.1"
   x="0px"
   y="0px"
   viewBox="0 0 843.8 314"
   style="enable-background:new 0 0 843.8 314;"
   xml:space="preserve"
   id="svg25"
   sodipodi:docname="KEYP_Logo_Horizontical_Grey.svg"
   inkscape:version="0.92.2 (5c3e80d, 2017-08-06)"><metadata
     id="metadata31"><rdf:RDF><cc:Work
         rdf:about=""><dc:format>image/svg+xml</dc:format><dc:type
           rdf:resource="http://purl.org/dc/dcmitype/StillImage" /></cc:Work></rdf:RDF></metadata><defs
     id="defs29" /><sodipodi:namedview
     pagecolor="#ffffff"
     bordercolor="#666666"
     borderopacity="1"
     objecttolerance="10"
     gridtolerance="10"
     guidetolerance="10"
     inkscape:pageopacity="0"
     inkscape:pageshadow="2"
     inkscape:window-width="1920"
     inkscape:window-height="1147"
     id="namedview27"
     showgrid="false"
     inkscape:zoom="0.4349372"
     inkscape:cx="167.86843"
     inkscape:cy="48.846348"
     inkscape:window-x="1912"
     inkscape:window-y="-8"
     inkscape:window-maximized="1"
     inkscape:current-layer="svg25" /><style
     type="text/css"
     id="style2">
	.st0{fill:#BDBCBC;}
	.st1{fill:none;}
	.st2{fill:#E20613;}
</style><g
     id="Wordmark"><path
       d="M700.7,104.9c1.5,1.6,1.5,3.7-0.1,5.2l-39,40.2v82.7c0,2.2-1.5,3.7-3.7,3.7c-0.6,0-16,0-17.4,0c-0.9,0-3.8-0.3-3.8-4.1v0   v-82.4l-58.6-59.5c-1-0.9-1.2-2.4-0.5-3.6c0.8-1.4,12.9-13.8,14.1-15c0.5-0.6,1.3-0.9,2.1-0.9h0c0.8,0,1.5,0.3,2.1,0.8l53.2,55.2   l33.6-34.6c0.7-0.7,1.6-1.1,2.6-1.1c1,0,1.9,0.4,2.6,1L700.7,104.9z"
       id="path4" /><path
       d="M741.4,96.9c5,0.9,10.1,2.4,14.8,4.3c8.2,3.5,15.6,8.5,22,14.8c5.5,5.5,9.9,11.7,13.2,18.5c0,0-40.7,15.7-50.1,19.3V96.9z    M820.9,144.6c-4.5-20.5-16.1-39.2-32.5-52.5c-8.2-6.7-17.3-11.8-27.2-15.4c-10.2-3.7-21-5.6-31.9-5.6c-2.9,0-5.8,0.1-8.7,0.4   c-2.1,0.2-3.7,1.9-3.7,4.1v156.9c0,4,4.2,4.1,4.5,4.1h16.4c1.4,0,2.3-0.6,2.8-1.1c0.7-0.8,0.7-1.8,0.7-3c0-0.9,0-52.5,0-52.5   l76.8-29.5C819.3,150,821.7,148.6,820.9,144.6"
       id="path6" /><path
       d="M507.2,163.7c-1.8-6.3-3.8-17.6-1.6-32.1c1.8-12.5,8.4-22.7,11-26.5l39.4,39.4L507.2,163.7z M603.4,213.6   c-0.4-1.2-1.2-2.2-2.3-2.7c-1-0.5-2.2-0.6-3.4-0.3c-15.3,4-34,4.9-51-2.6c-16.6-7.4-26.4-19.6-28.4-22.1l71.7-28.3   c2.2-0.9,3.8-2.7,4.2-5c0.5-2.3-0.2-4.6-1.9-6.3l-73.7-74c-1.3-1.3-3.4-1.4-4.8-0.2c-21.6,17.9-34,44.2-34,72.2   c0,25,9.6,48.8,27.5,66.3c20.7,20.3,44,27.5,66.3,27.5c14,0,24.5-3,31.2-5.3c1.2-0.4,2.1-1.2,2.7-2.3c0.6-1.1,0.7-2.4,0.3-3.6   L603.4,213.6z"
       id="path8" /><path
       d="M474.2,221.3l-55.9-56.4l50-53.1c2-2.1,2-4.3-0.1-6.4l-11.2-10.9c-0.8-0.8-1.9-1.2-3.2-1.1c-1.2,0-2.4,0.5-3.1,1.3   l-37.4,40v-58c0-2.3-1.8-4.1-4.1-4.1h-16.2c-1.3,0-4.3,0.4-4.3,4.7l0.1,155.2c-0.1,2.3,1.8,4.1,4,4.1h16.2c1.3,0,4.3-0.4,4.3-4.7   v-37.8l44.5,43.8c0.6,0.6,1.4,0.9,2.3,0.9c0.8,0,1.5-0.3,2.1-0.8c4.5-4,8.7-8.1,12.3-12.2C475.5,224.5,475.4,222.5,474.2,221.3z"
       id="path10" /></g><g
     id="Editable_color_background"
     style="fill:#ececec"><circle
       class="st0"
       cx="155.9"
       cy="155.9"
       r="141.4"
       id="circle13"
       style="fill:#ececec" /></g><g
     id="Segments"><path
       class="st1"
       d="M135.5,156"
       id="path16" /><path
       class="st1"
       d="M135.5,156"
       id="path18" /><path
       class="st2"
       d="M249.9,51.3"
       id="path20" /><path
       d="M294,123.7C279.4,60.9,223.1,14.2,155.9,14.2c-3.4,0-6.7,0.1-10,0.4c-1.5,0.1-2.2,1.2-2.2,2.4v111.2   c0,0-76.6-77.9-77.5-78.9s-2.2-1.1-3.3-0.2C33,75,14.2,113.2,14.2,155.9c0,54.2,30.5,101.3,75.2,125.2   c32.2,17.3,62.4,16.6,66.5,16.6c11.4,0,27-1.3,44.4-7.1c0.9-0.3,2.2-1.3,1.6-3.2c-0.2-0.8-5.3-16.2-6.1-18.7   c-0.8-2.5-2.5-1.8-3.4-1.5c-8.4,2.8-15.8,4.3-24.2,5.2v-84c0,0,74.4,75.7,75,76.3c1,1,2.3,1.1,3.2,0.4c5.3-4.4,10.2-9.1,14.8-14.2   c0.9-0.9,0.9-2.2-0.2-3.3c-0.4-0.4-77.2-78.4-77.2-78.4l108.7-42.5C294.1,125.9,294.3,125.3,294,123.7z M45.9,196.5   c-4.8-13-7.3-26.7-7.3-40.8c0-15.8,3.1-31.2,9.2-45.6c2.9-6.9,6.6-13.6,10.8-19.9c1.8-2.6,3.6-5.2,5.6-7.6l75.9,77.2L45.9,196.5z    M143.6,272.3c-11.5-1.2-22.7-4.1-33.4-8.6c-6.9-2.9-13.6-6.6-19.9-10.8c-6.2-4.2-12.1-9-17.4-14.3c-5.3-5.3-10.1-11.2-14.3-17.4   c-0.6-0.9-1.1-1.7-1.7-2.6l86.8-33.9V272.3z M168.3,125.4V39c11.5,1.2,22.6,4.1,33.2,8.6c6.9,2.9,13.6,6.6,19.9,10.8   c2.3,1.5,4.5,3.2,6.7,4.9L168.3,125.4z M187.2,141.3l58.6-60.9c2.6,3.1,5.1,6.4,7.3,9.7c4.2,6.3,7.9,13,10.8,19.9   c0.1,0.4,0.3,0.7,0.4,1.1L187.2,141.3z"
       id="path22" /></g></svg>