<?xml version="1.0" encoding="UTF-8" standalone="no"?>
<!-- Created with Inkscape (http://www.inkscape.org/) -->

<svg
   width="210mm"
   height="297mm"
   viewBox="0 0 210 297"
   version="1.1"
   id="svg945"
   inkscape:version="1.1.1 (3bf5ae0d25, 2021-09-20)"
   sodipodi:docname="kraken2.svg"
   xmlns:inkscape="http://www.inkscape.org/namespaces/inkscape"
   xmlns:sodipodi="http://sodipodi.sourceforge.net/DTD/sodipodi-0.dtd"
   xmlns="http://www.w3.org/2000/svg"
   xmlns:svg="http://www.w3.org/2000/svg">
  <sodipodi:namedview
     id="namedview947"
     pagecolor="#ffffff"
     bordercolor="#666666"
     borderopacity="1.0"
     inkscape:pageshadow="2"
     inkscape:pageopacity="0.0"
     inkscape:pagecheckerboard="0"
     inkscape:document-units="mm"
     showgrid="false"
     inkscape:snap-grids="true"
     inkscape:snap-page="true"
     inkscape:zoom="0.72871773"
     inkscape:cx="397.27316"
     inkscape:cy="560.57371"
     inkscape:window-width="3870"
     inkscape:window-height="1541"
     inkscape:window-x="201"
     inkscape:window-y="-1627"
     inkscape:window-maximized="1"
     inkscape:current-layer="layer1" />
  <defs
     id="defs942" />
  <g
     inkscape:label="Layer 1"
     inkscape:groupmode="layer"
     id="layer1"
     style="opacity:1">
    <path
       id="_x23_0da8ffff_1_"
       class="st0"
       d="m 40.774757,136.77436 c 2.75166,-0.18521 5.55625,0.37041 8.01687,1.61395 3.65125,1.79917 6.56167,5.02709 7.91104,8.83709 0.60854,1.69333 0.92604,3.46604 0.92604,5.26521 v 6.64104 c 0,0.26458 0,0.55562 -0.0529,0.82021 -0.15875,0.66145 -0.635,1.27 -1.27,1.56104 -0.44979,0.21166 -0.9525,0.23812 -1.40229,0.15875 -1.00542,-0.18521 -1.79917,-1.13771 -1.79917,-2.16959 0,-2.06375 0,-4.1275 0,-6.19125 0.0265,-0.58208 0.0265,-1.21708 -0.29104,-1.71979 -0.50271,-0.9525 -1.77271,-1.40229 -2.75167,-1.00541 -0.84667,0.29104 -1.45521,1.16416 -1.48167,2.06375 0,2.0902 0,4.18041 0,6.27062 0,0.39688 0.0265,0.79375 -0.10583,1.16417 -0.21167,0.74083 -0.82021,1.32291 -1.56104,1.53458 -0.97896,0.26458 -2.09021,-0.15875 -2.56646,-1.05833 -0.34396,-0.52917 -0.3175,-1.19063 -0.29104,-1.79917 0,-2.09021 0,-4.15396 0,-6.24417 -0.0265,-1.05833 -0.89958,-2.01083 -1.93146,-2.14312 -0.68792,-0.10583 -1.40229,0.13229 -1.905,0.60854 -0.44979,0.42333 -0.68792,1.03188 -0.68792,1.64042 v 6.05896 c 0,0.5027 0.0529,1.03187 -0.13229,1.50812 -0.29104,0.87313 -1.16416,1.50813 -2.09021,1.48167 -0.9525,0.0529 -1.87854,-0.60854 -2.16958,-1.48167 -0.15875,-0.44979 -0.13229,-0.89958 -0.13229,-1.37583 0,-2.09021 0,-4.18042 0,-6.27063 0,-1.03187 -0.82021,-1.98437 -1.82563,-2.16958 -0.92604,-0.18521 -1.93145,0.26458 -2.4077,1.11125 -0.18521,0.34396 -0.29105,0.74083 -0.29105,1.13771 v 6.79979 c 0,0.66146 -0.29104,1.32292 -0.79375,1.74625 -0.76729,0.66146 -2.01083,0.71437 -2.80458,0.10583 -0.58208,-0.39687 -0.92604,-1.08479 -0.92604,-1.79916 v -6.87917 c 0,-2.59292 0.66146,-5.18583 1.905,-7.48771 1.00542,-1.87854 2.40771,-3.54542 4.07458,-4.86833 2.46063,-2.06375 5.60917,-3.28084 8.83709,-3.46604 z"
       style="fill:#5741d9;stroke-width:0.264583" />
    <path
       class="st0"
       d="m 102.60788,144.73831 h -3.439583 c 0.13229,-2.4077 0.635,-4.57729 2.831043,-5.95312 2.19604,-1.34938 4.60375,-1.66688 7.11729,-1.45521 1.34938,0.10583 2.69875,0.39688 3.94229,0.97896 2.19604,1.00542 3.28084,2.72521 3.28084,5.13292 0,4.25979 0,8.51958 0,12.77937 0,1.56104 0.3175,1.85208 1.87854,1.69333 0.15875,-0.0265 0.34396,-0.0529 0.50271,-0.0794 0.0265,0.0794 0.0265,0.15875 0.0265,0.21167 v 2.59291 c -1.24354,0.42334 -2.51354,0.55563 -3.75708,0.21167 -0.92604,-0.26458 -1.50812,-0.92604 -1.82562,-1.79917 -0.15875,-0.44979 -0.26459,-0.92604 -0.39688,-1.42875 -0.13229,0.15875 -0.23812,0.29104 -0.37042,0.42334 -2.7252,2.75166 -5.95312,3.91583 -9.76312,2.93687 -2.698753,-0.68792 -4.550833,-3.14854 -4.630213,-5.95312 -0.0265,-0.89959 0.0529,-1.79917 0.26458,-2.6723 0.50271,-2.01083 1.931463,-3.22791 3.730633,-4.04812 1.27,-0.58208 2.64583,-0.74083 4.02167,-0.92604 1.61395,-0.21167 3.20145,-0.39688 4.81541,-0.635 1.08479,-0.15875 1.64042,-0.74084 1.79917,-1.82563 0.34396,-2.19604 -0.635,-3.65125 -2.75167,-4.18041 -1.27,-0.3175 -2.56646,-0.37042 -3.86291,-0.1323 -1.905,0.34396 -2.96334,1.42875 -3.33375,3.3073 0.0265,0.26458 -0.0265,0.52916 -0.0794,0.8202 z m 10.13354,4.23334 c -1.5875,0.84666 -3.12208,1.05833 -4.68312,1.29646 -1.29646,0.21166 -2.61938,0.39687 -3.88938,0.79375 -1.66687,0.55562 -2.43416,1.93145 -2.27541,3.78354 0.13229,1.53458 1.16416,2.77812 2.83104,3.04271 2.56646,0.42333 4.84187,-0.29105 6.64104,-2.19605 0.52917,-0.55562 0.9525,-1.34937 1.05833,-2.0902 0.23813,-1.48167 0.21167,-2.9898 0.3175,-4.63021 z m 49.02729,4.445 c -0.0794,0.37041 -0.13229,0.68791 -0.21166,0.97896 -1.48167,4.52437 -4.49792,6.45583 -8.14917,6.87916 -6.32354,0.68792 -9.94833,-3.43958 -10.87437,-7.83166 -0.74084,-3.4925 -0.635,-6.95855 0.89958,-10.23938 1.45521,-3.09562 3.78354,-5.13292 7.24958,-5.74146 4.15396,-0.74083 10.02771,1.32292 11.00667,7.80521 0.26458,1.66688 0.3175,3.38667 0.47625,5.13292 h -16.08667 c 0.13229,2.38125 0.50271,4.60375 2.24896,6.32354 0.71438,0.71437 1.64042,1.05833 2.64583,1.24354 3.25438,0.58208 5.95313,-0.97896 7.01146,-4.1275 0.10583,-0.34396 0.26458,-0.44979 0.60854,-0.42333 1.03188,0 2.06375,0 3.175,0 z m -15.5575,-6.08542 h 12.03854 c -0.13229,-1.40229 -0.37041,-2.69875 -1.03187,-3.91583 -0.635,-1.16417 -1.56104,-2.01084 -2.83104,-2.43417 -4.15396,-1.42875 -8.44021,1.87854 -8.17563,6.35 z m 24.20938,13.17625 h -3.65125 v -22.70125 h 3.46604 v 3.175 c 0.26458,-0.29104 0.42333,-0.47625 0.58208,-0.66146 2.48709,-2.83104 5.60917,-3.57187 9.15459,-2.69875 2.46062,0.60854 3.83645,2.35479 4.3127,4.78896 0.18521,1.00542 0.3175,2.03729 0.3175,3.04271 0.0265,4.86833 0.0265,9.73667 0.0265,14.605 0,0.13229 -0.0265,0.26458 -0.0265,0.42333 h -3.73062 v -0.60854 c 0,-4.55083 0.0265,-9.10167 -0.0265,-13.6525 0,-1.00542 -0.15875,-2.03729 -0.44979,-3.01625 -0.47625,-1.5875 -1.74625,-2.43417 -3.41313,-2.51354 -3.0427,-0.10583 -5.45041,1.50812 -6.19125,4.20687 -0.26458,0.97896 -0.34395,2.01084 -0.34395,3.04271 -0.0265,3.99521 -0.0265,7.96396 -0.0265,11.90625 z m -48.12771,-22.70125 h 3.51896 v 9.63083 c 0.21167,-0.21166 0.34396,-0.3175 0.47625,-0.44979 2.88396,-2.93687 5.76792,-5.90021 8.65187,-8.83708 0.23813,-0.26458 0.47625,-0.37042 0.84667,-0.37042 1.34938,0.0265 2.72521,0 4.20688,0 -0.21167,0.21167 -0.3175,0.34396 -0.4498,0.47625 -2.54,2.54 -5.05354,5.10646 -7.62,7.62 -0.29104,0.29104 -0.29104,0.47625 -0.10583,0.79375 2.77813,4.41854 5.52979,8.83709 8.28146,13.25563 0.10583,0.15875 0.18521,0.3175 0.3175,0.55562 -0.18521,0.0265 -0.3175,0.0265 -0.47625,0.0265 -1.27,0 -2.51354,0 -3.78354,0 -0.34396,0 -0.50271,-0.13229 -0.68792,-0.39687 -2.11667,-3.54542 -4.23333,-7.09084 -6.35,-10.66271 -0.10583,-0.15875 -0.18521,-0.3175 -0.3175,-0.50271 -0.97896,0.97896 -1.93146,1.905 -2.88396,2.88396 -0.13229,0.13229 -0.15875,0.37041 -0.15875,0.55562 0,2.48709 0,4.97417 0,7.46125 v 0.635 c -0.68791,0 -1.37583,0 -2.03729,0 -0.47625,0 -1.13771,0.13229 -1.40229,-0.13229 -0.23813,-0.21167 -0.10583,-0.89958 -0.10583,-1.37583 v -20.55813 c 0.0794,-0.13229 0.0794,-0.34396 0.0794,-0.60854 z m -40.613543,-0.0265 c -2.8575,2.83104 -5.63563,5.60917 -8.44021,8.38729 3.01625,4.81542 5.95313,9.525 8.94292,14.34042 -0.23813,0 -0.39688,0.0265 -0.55563,0.0265 -1.21708,0 -2.46062,0 -3.67771,0 -0.34395,0 -0.55562,-0.13229 -0.74083,-0.42333 -2.11667,-3.54542 -4.23333,-7.09084 -6.35,-10.66271 -0.0794,-0.15875 -0.18521,-0.29104 -0.3175,-0.50271 -0.52917,0.55562 -1.00542,1.16417 -1.5875,1.5875 -1.19062,0.89958 -1.53458,2.01083 -1.45521,3.4925 0.13229,1.93146 0.0265,3.88937 0.0265,5.82083 v 0.635 h -3.4925 v -22.67479 h 3.4925 v 9.47208 c 0.0794,0.0529 0.15875,0.10584 0.21167,0.15875 0.10583,-0.15875 0.15875,-0.34395 0.26458,-0.47625 2.8575,-2.93687 5.74146,-5.84729 8.59896,-8.81062 0.26458,-0.26458 0.50271,-0.39688 0.89958,-0.37042 1.19063,0.0265 2.38125,0 3.57188,0 0.18521,0 0.34396,0 0.60854,0 z m 6.985,3.78354 c 1.77271,-2.59291 3.65125,-4.7625 7.14375,-4.1275 v 3.88938 c -0.92604,0.0529 -1.85208,0.0265 -2.72521,0.21167 -2.14312,0.44979 -3.81,2.4077 -4.15396,4.78895 -0.0529,0.47625 -0.10583,0.9525 -0.10583,1.42875 0,4.04813 0,8.09625 0,12.14438 v 0.635 h -3.59833 v -22.67479 h 3.43958 c 0,1.19062 0,2.38125 0,3.70416 z"
       id="path5"
       style="fill:#5741d9;stroke-width:0.264583" />
  </g>
</svg>
