<svg width="154" height="38" viewBox="0 0 154 38" xmlns="http://www.w3.org/2000/svg"><defs><filter x="-22.3%" y="-24.9%" width="144.5%" height="149.8%" filterUnits="objectBoundingBox" id="a"><feOffset dx="1" dy="1" in="SourceAlpha" result="shadowOffsetOuter1"/><feGaussianBlur stdDeviation=".5" in="shadowOffsetOuter1" result="shadowBlurOuter1"/><feColorMatrix values="0 0 0 0 0 0 0 0 0 0 0 0 0 0 0 0 0 0 0.5 0" in="shadowBlurOuter1" result="shadowMatrixOuter1"/><feMerge><feMergeNode in="shadowMatrixOuter1"/><feMergeNode in="SourceGraphic"/></feMerge></filter></defs><g fill="none" fill-rule="evenodd"><path d="M128.352 1.011a4.323 4.323 0 014.207 3.362l.009.04h.008a4.29 4.29 0 012.749 1.178c1.777-1.158 3.983-1.76 6.448-1.76 2.705 0 5.158.73 7.084 2.208 2.082 1.597 3.358 3.932 3.65 6.634a4.325 4.325 0 01-.614 2.74h0l-.028.046.011.021c.638 1.19.98 2.574.993 4.114h0v.096c0 2.895-1.261 5.465-3.48 7.207-1.967 1.543-4.528 2.32-7.309 2.32-2.185 0-4.202-.487-5.915-1.385a4.3 4.3 0 01-3.219 1.521h-.071l-1.92-.003c-2.782 0-5.305-1.008-7.124-2.96a9.224 9.224 0 01-.55-.645 12.371 12.371 0 01-8.462 3.344 12.32 12.32 0 01-6.53-1.862c-1.304 5.504-6.223 9.599-12.096 9.599A12.393 12.393 0 0187 32.741a12.368 12.368 0 01-9.192 4.085c-5.458 0-10.226-3.568-11.853-8.721a4.496 4.496 0 01-.073-.259 11.507 11.507 0 01-5.318 1.274c-2.064 0-3.963-.52-5.58-1.443a4.296 4.296 0 01-3.23 1.543h-2.801a4.321 4.321 0 01-4.12-3.043l-.017-.056-.001.003a4.322 4.322 0 01-4.066 3.096h-2.8c-2.36 0-4.278-1.903-4.316-4.265l-.001-2.992h-7.068l-2.362 4.66a4.998 4.998 0 01-4.221 2.735l-.235.006H9.93a4.997 4.997 0 01-4.458-2.746h0l-3.93-7.768a5.035 5.035 0 01-.008-4.53h0l3.93-7.832a4.997 4.997 0 014.466-2.76h9.816a4.997 4.997 0 014.463 2.756h0l2.3 4.57h7.856c1.57-4.127 5.499-6.898 10.277-6.969l.189-.001.189.001c2.05.03 3.944.561 5.56 1.485a4.302 4.302 0 013.313-1.556h2.728a4.319 4.319 0 014.028 2.775h0l.005.012.005-.012a4.32 4.32 0 013.957-2.774h0l.071-.001h2.76c1.524 0 2.864.794 3.632 1.993a12.31 12.31 0 016.523-1.987l.206-.002.195.002A12.375 12.375 0 0187 8.105a12.366 12.366 0 018.987-4.085l.206-.002.195.002a12.379 12.379 0 019.139 4.245 12.369 12.369 0 019.292-4.198c2.314 0 4.48.636 6.336 1.744v-.463c0-2.371 1.894-4.298 4.245-4.336h2.952z" stroke="#C8C8C8" stroke-width=".5" fill="#FFF"/><g filter="url(#a)" transform="translate(5.886 8.636)"><path fill="#8168A0" d="M8.84 13.577l8.841-5.745-8.84-5.746z"/><path fill="#CAC8E9" d="M3.926 0L0 7.832l8.84-5.746z"/><path fill="#CAA3C7" d="M13.756 0L8.84 2.086l8.84 5.746z"/><path fill="#E4D8EB" d="M3.926 0L8.84 2.086 13.756 0z"/><path fill="#793773" d="M3.926 15.664h9.83L8.84 13.577z"/><path fill="#7D4476" d="M8.84 13.577l4.916 2.087 3.925-7.832z"/><path fill="#88739F" d="M3.926 15.664l4.915-2.087L0 7.832z"/><path fill="#9B90C1" d="M0 7.832l8.84 5.745V2.087z"/></g><path d="M44.831 8.421c-3.928 0-6.882 2.762-6.882 6.718v9.744h2.728v-9.837c0-2.411 1.796-4.032 4.154-4.032 2.34 0 4.123 1.62 4.123 4.032v9.837h2.729v-9.744c0-3.956-2.942-6.718-6.852-6.718m19.856 9.644c0 2.411-1.783 4.031-4.123 4.031-2.358 0-3.943-1.62-3.943-4.031V8.35h-2.728v9.714c0 3.892 2.806 6.717 6.671 6.717 3.866 0 6.882-2.825 6.882-6.717V8.35h-2.759v9.714zm63.665.935v-7.446h4.01V8.746h-4.01V5.348h-2.88V19c0 1.835.521 3.366 1.509 4.425.968 1.04 2.342 1.588 3.973 1.588l1.928.003v-2.759h-1.442c-2.05 0-3.088-1.096-3.088-3.257m9.832-6.198c0-1.235 1.503-2.224 3.59-2.224 1.932 0 3.435.865 3.803 2.564h2.638c-.337-3.12-2.791-4.973-6.442-4.973-4.233 0-6.196 2.44-6.196 4.726 0 2.996 2.331 3.923 6.166 4.479 3.865.525 4.294 1.359 4.294 2.47 0 1.39-1.503 2.595-3.957 2.595-2.27 0-4.08-1.143-4.417-2.996h-2.638c.43 3.367 3.22 5.437 7.055 5.437 3.773 0 6.473-2.008 6.473-5.19 0-3.614-2.884-4.293-6.38-4.849-3.099-.494-3.989-.896-3.989-2.039zm-41.991 9.087c-2.94 0-5.322-2.4-5.322-5.36 0-2.96 2.382-5.359 5.322-5.359 2.73 0 4.978 2.07 5.285 4.736l.006 1.206c-.289 2.686-2.547 4.777-5.29 4.777m0-13.533c-4.485 0-8.119 3.66-8.119 8.173 0 4.515 3.634 8.175 8.118 8.175 2.034 0 3.89-.755 5.315-2l.007 1.61c0 2.96-2.383 5.36-5.322 5.36a5.318 5.318 0 01-4.73-2.898l-3.008.017c1.042 3.303 4.113 5.696 7.738 5.696 4.483 0 8.118-3.66 8.118-8.174v-8.409h-.026c-.317-4.223-3.817-7.55-8.092-7.55M77.808 21.889c-2.94 0-5.322-2.4-5.322-5.36 0-2.96 2.383-5.359 5.322-5.359 2.73 0 4.978 2.07 5.285 4.736l.005 1.206c-.288 2.686-2.546 4.777-5.29 4.777m0-13.533c-4.483 0-8.118 3.66-8.118 8.173 0 4.515 3.635 8.175 8.118 8.175 2.034 0 3.89-.755 5.315-2l.007 1.61c0 2.96-2.383 5.36-5.322 5.36a5.318 5.318 0 01-4.73-2.898l-3.008.017c1.042 3.303 4.113 5.696 7.738 5.696 4.483 0 8.118-3.66 8.118-8.174v-8.409H85.9c-.317-4.223-3.817-7.55-8.092-7.55m31.974 6.544c.7-2.137 2.7-3.681 5.057-3.681 2.345 0 4.346 1.555 5.056 3.675l-10.113.007zm5.037-6.496c-4.483 0-8.118 3.66-8.118 8.174 0 4.514 3.635 8.174 8.118 8.174 3.468 0 6.428-2.19 7.59-5.27l-3.095-.002a5.31 5.31 0 01-4.475 2.457c-2.74 0-4.995-2.083-5.29-4.762l13.367-.007a8.41 8.41 0 00.02-.59c0-4.514-3.634-8.174-8.117-8.174z" fill="#8764A0"/></g></svg>