<?xml version="1.0" encoding="utf-8"?>
<!-- Generator: Adobe Illustrator 18.0.0, SVG Export Plug-In . SVG Version: 6.00 Build 0)  -->
<!DOCTYPE svg PUBLIC "-//W3C//DTD SVG 1.1//EN" "http://www.w3.org/Graphics/SVG/1.1/DTD/svg11.dtd">
<svg version="1.1" id="Layer_1" xmlns="http://www.w3.org/2000/svg" xmlns:xlink="http://www.w3.org/1999/xlink" x="0px" y="0px"
	 width="274px" height="122px" viewBox="0 0 274 122" enable-background="new 0 0 274 122" xml:space="preserve">
<title>ProxyIQ-Lockup-RGB</title>
<desc>Created with Sketch.</desc>
<g id="Page-1">
	<g id="_x31_280" transform="translate(-67.000000, -56.000000)">
		<g id="ProxyIQ-Lockup-RGB" transform="translate(67.000000, 56.000000)">
			<g id="Group">
				<g transform="translate(73.191781, 103.230769)">
					<path id="Shape" fill="#952040" d="M3,15.6H0.1V0.6h5.4c3.9,0,5.1,2.9,5.1,4.9c0,3-2.5,5-4.8,5H3V15.6z M7.7,5.4
						c0-0.7-0.4-2.1-2.1-2.1H3v4.2h2.7C7.3,7.5,7.7,6.1,7.7,5.4z"/>
					<path id="Shape_1_" fill="#952040" d="M23,15.6h-2.8V0.6h5.4c3.9,0,5.1,2.9,5.1,4.9c0,2.2-1.2,3.8-2.8,4.5l2.5,5.7h-3.1
						l-2.3-5.2H23V15.6L23,15.6z M27.8,5.4c0-0.7-0.4-2.1-2.1-2.1H23v4.2h2.7C27.4,7.5,27.8,6.1,27.8,5.4z"/>
					<path id="Shape_2_" fill="#952040" d="M53.6,8.1c0,3.2-1.7,7.8-7,7.8c-5.4,0-7.1-4.6-7.1-7.8c0-3.1,1.7-7.8,7.1-7.8
						C51.9,0.3,53.6,4.9,53.6,8.1z M50.6,8.1c0-1.2-0.5-4.9-4.1-4.9c-3.7,0-4.1,3.7-4.1,4.9s0.5,5,4.1,5
						C50.1,13.1,50.6,9.3,50.6,8.1z"/>
					<polygon id="Path" fill="#952040" points="73.3,0.5 68.8,8.1 73.3,15.6 70,15.6 67.2,10.8 64.5,15.6 61.1,15.6 65.6,8.1 
						61.1,0.5 64.5,0.5 67.2,5.4 69.9,0.5 					"/>
					<polygon id="Path_1_" fill="#952040" points="88.6,15.6 85.7,15.6 85.7,9 80.9,0.6 84,0.6 87.1,6.1 90.2,0.6 93.4,0.6 
						88.6,8.9 					"/>
					<polygon id="Path_2_" fill="#952040" points="105.3,15.6 102.5,15.6 102.5,0.6 105.3,0.6 					"/>
					<path id="Shape_3_" fill="#952040" d="M129,8.1c0,2.2-0.7,4.8-2.8,6.4l3.2,4v0.3h-3.3l-2.3-3.1c-0.5,0.1-1.3,0.2-1.8,0.2
						c-5.4,0-7.1-4.5-7.1-7.7c0-3.1,1.7-7.7,7.1-7.7C127.4,0.4,129,4.9,129,8.1z M126.1,8.1c0-1.2-0.5-4.9-4.1-4.9
						c-3.7,0-4.1,3.7-4.1,4.9s0.5,4.9,4.1,4.9C125.6,13,126.1,9.3,126.1,8.1z"/>
				</g>
				<g>
					<path id="Shape_4_" fill="#952040" d="M166.4,72.5c0.2,0.5-0.1,1.1-0.7,1.1h-8.9c-0.7,0-1.5-0.4-1.7-1.1l-4.4-10.6h-15.6
						l-4.3,10.6c-0.3,0.7-0.9,1.1-1.7,1.1h-8.9c-0.6,0-0.9-0.6-0.7-1.1l22.2-49.1c0.2-0.4,0.7-0.8,1.2-0.8c0.6,0,1.1,0.4,1.3,0.8
						L166.4,72.5z M138.3,53.7h9.1l-4.5-11.3L138.3,53.7z"/>
					<path id="Path_3_" fill="#952040" d="M197.4,43.1c7.9,2.7,17.9,5.8,17.2,16.6c-0.5,8.2-7.9,14.5-18.4,14.5
						c-7.1,0-12.7-1.6-18.5-4.5c-0.6-0.3-0.8-1.1-0.5-1.7l3.3-6.3c0.3-0.6,1.1-0.9,1.7-0.6c4.5,2.1,9,3.6,13.5,3.6
						c4.4,0,7.6-1.9,8.1-4.8c0.6-3.6-3.2-5.5-8.1-7c-7.6-2.4-17.9-4.8-17.9-15.7c0-9.2,6.9-14.7,16.4-14.7c2.8,0,9.3,0.6,17.3,4.1
						c0.6,0.3,0.9,1,0.6,1.7l-2.7,6.3c-0.3,0.6-1,0.9-1.7,0.7c-3-1.2-8.5-3.2-12.8-3.2c-3.5,0-6.7,1.1-6.9,4.7
						C188.2,40,192.4,41.4,197.4,43.1"/>
					<path id="Path_4_" fill="#952040" d="M239.5,32.6H227c-0.6,0-1.2-0.6-1.2-1.2v-6.9c0-0.6,0.6-1.2,1.2-1.2h35.3
						c0.7,0,1.2,0.6,1.2,1.2v6.9c0,0.6-0.6,1.2-1.2,1.2h-12.5v39.7c0,0.6-0.6,1.2-1.2,1.2h-7.9c-0.6,0-1.2-0.6-1.2-1.2L239.5,32.6
						L239.5,32.6z"/>
					<path id="Path_5_" fill="#F37321" d="M35,24.8C30.8,17,32.2,7.9,37.9,3.1c-2.5,1.7-4.7,4.1-6.3,7.1L19.5,32.6h19.6L35,24.8z"/>
					<path id="Path_6_" fill="#F37321" d="M5.3,59.1l-1.2,2.3c-4.7,8.8-2.4,19.2,5.2,23.3s17.6,0.1,22.3-8.6l6.6-12.3h-20
						C13.1,63.7,8.6,61.9,5.3,59.1"/>
					<path id="Path_7_" fill="#F37321" d="M59.1,24.8l-4.2,7.7h19.5l-12-22.4c-1.6-3-3.8-5.3-6.3-7.1C61.9,7.9,63.3,17,59.1,24.8"/>
					<path id="Path_8_" fill="#F37321" d="M88.9,59.4c-3.2,2.6-7.6,4.3-12.4,4.3H55.8L62.4,76c4.7,8.8,14.7,12.6,22.3,8.6
						c7.6-4,9.9-14.5,5.2-23.3L88.9,59.4z"/>
					<path id="Path_9_" fill="#D81A32" d="M35,24.8l4.2,7.7h15.8l4.1-7.7c4.2-7.8,2.8-17-2.9-21.7c-2.8-2-6-3-9.2-3.1
						c-3.2,0.1-6.4,1.2-9.2,3.1C32.2,7.9,30.8,17,35,24.8"/>
					<path id="Path_10_" fill="#FDB733" d="M18.2,32.6c-10,0-18.2,7-18.2,15.5c0,4.3,2,8.1,5.3,10.9l14.2-26.5H18.2z"/>
					<path id="Path_11_" fill="#FDB733" d="M94.6,48.1c0-8.6-8.2-15.5-18.2-15.5h-2l14.4,26.8C92.4,56.5,94.6,52.5,94.6,48.1"/>
					<polygon id="Path_12_" fill="#FDB733" points="38.2,63.7 55.8,63.7 47,47.3 					"/>
					<path id="Path_13_" fill="#F04E37" d="M39.1,32.6H19.5L5.3,59c3.3,2.9,7.9,4.6,12.9,4.6h20L47,47.3L39.1,32.6z"/>
					<path id="Path_14_" fill="#F04E37" d="M88.9,59.4L74.5,32.6H54.9l-7.9,14.7l8.8,16.3h20.7C81.3,63.6,85.6,62,88.9,59.4"/>
					<polygon id="Path_15_" fill="#952040" points="47,47.3 54.9,32.6 39.1,32.6 					"/>
					<path id="Shape_5_" fill="#952040" d="M274,22.2c0,1.9-1.5,3.4-3.5,3.4c-1.9,0-3.5-1.5-3.5-3.4c0-1.9,1.5-3.3,3.5-3.3
						C272.5,18.8,274,20.3,274,22.2z M268,22.2c0,1.5,1.1,2.7,2.6,2.7c1.5,0,2.6-1.2,2.6-2.7c0-1.5-1.1-2.7-2.6-2.7
						C269,19.5,268,20.7,268,22.2z M270,23.9h-0.8v-3.3c0.3-0.1,0.7-0.1,1.3-0.1c0.6,0,0.9,0.1,1.2,0.3c0.2,0.1,0.3,0.4,0.3,0.7
						c0,0.4-0.3,0.7-0.7,0.8v0c0.3,0.1,0.5,0.4,0.6,0.8c0.1,0.5,0.1,0.7,0.3,0.9h-0.9c-0.1-0.1-0.1-0.4-0.3-0.8
						c-0.1-0.4-0.3-0.5-0.7-0.5H270V23.9L270,23.9z M270.1,22h0.4c0.4,0,0.8-0.1,0.8-0.5c0-0.3-0.2-0.5-0.7-0.5c-0.2,0-0.3,0-0.4,0
						V22z"/>
				</g>
			</g>
		</g>
	</g>
</g>
</svg>
